<?xml version="1.0" encoding="UTF-8"?>
<!-- Created with Inkscape (http://www.inkscape.org/) -->
<svg width="72" height="15" version="1.1" viewBox="0 0 19.05 3.9688" xmlns="http://www.w3.org/2000/svg">
 <g transform="translate(-1.9844)">
  <g transform="translate(.41368)" stroke-linecap="round" stroke-linejoin="round">
   <g transform="translate(-9.0126 -1.9844)">
    <rect x="10.583" y="1.9844" width="3.9687" height="3.9687" rx=".40577" fill="#00d084" stroke-width=".34722"/>
    <path d="m12.491 5.5961 0.03645-0.69911a0.076958 0.076958 0 0 0-0.08992-0.07939l-0.69586 0.12232 0.09397-0.25923a0.052656 0.052656 0 0 0-0.0162-0.059135l-0.7623-0.61729 0.17174-0.080197a0.052656 0.052656 0 0 0 0.02754-0.064002l-0.15068-0.46337 0.43907 0.093161a0.052656 0.052656 0 0 0 0.05914-0.030786l0.08506-0.20009 0.34267 0.36778a0.052656 0.052656 0 0 0 0.08992-0.046172l-0.16526-0.85222 0.2649 0.15311a0.052656 0.052656 0 0 0 0.07372-0.021868l0.26895-0.52818 0.26895 0.52818a0.052656 0.052656 0 0 0 0.07371 0.021866l0.26489-0.1531-0.16526 0.85221a0.052656 0.052656 0 0 0 0.08992 0.046168l0.34268-0.36778 0.08501 0.20009a0.052656 0.052656 0 0 0 0.05922 0.030786l0.43905-0.09316-0.15068 0.46337a0.052656 0.052656 0 0 0 0.02753 0.064006l0.17174 0.080192-0.76229 0.61729a0.052656 0.052656 0 0 0-0.01622 0.059138l0.09397 0.25923-0.69586-0.12232a0.076958 0.076958 0 0 0-0.08993 0.079385l0.03648 0.69911z" fill="#fff" stroke="#fff" stroke-width=".03624"/>
   </g>
   <text x="5.8898411" y="3.0158963" fill="#ffffff" font-family="'American Typewriter'" font-size="7.0556px" letter-spacing="0px" stroke="#ffffff" stroke-width="1.3229" xml:space="preserve"><tspan x="5.8898411" y="3.0158963" fill="#475569" font-family="Poppins" font-size="2.8222px" letter-spacing="0px" stroke="none" stroke-width="1.3229" style="font-variant-caps:normal;font-variant-east-asian:normal;font-variant-ligatures:normal;font-variant-numeric:normal">Canadata</tspan></text>
  </g>
 </g>
 <text x="24.068327" y="19.663666" fill="#475569" font-family="Poppins" font-size="2.8222px" font-weight="600" stroke-linecap="round" stroke-linejoin="round" stroke-width="1.3229" style="font-variant-caps:normal;font-variant-east-asian:normal;font-variant-ligatures:normal;font-variant-numeric:normal" xml:space="preserve"><tspan x="24.068327" y="19.663666" stroke-width="1.3229"/></text>
</svg>
